{
  "accessors": [
    {
      "bufferView": 2,
      "componentType": 5126,
      "count": 9316,
      "max": [
        2.2927660942077637,
        1.7361372709274292,
        0.76029860973358154
      ],
      "min": [
        -2.2338366508483887,
        -1.6943449974060059,
        -0.75381994247436523
      ],
      "type": "VEC3"
    },
    {
      "bufferView": 2,
      "byteOffset": 111792,
      "componentType": 5126,
      "count": 9316,
      "max": [
        0.99138808250427246,
        0.99997258186340332,
        0.99993383884429932
      ],
      "min": [
        -0.99140018224716187,
        -0.99998390674591064,
        -0.99993491172790527
      ],
      "type": "VEC3"
    },
    {
      "bufferView": 3,
      "componentType": 5126,
      "count": 9316,
      "max": [
        0.95772922039031982,
        0.99999821186065674,
        0.99998879432678223,
        1
      ],
      "min": [
        -0.99709224700927734,
        -0.99999392032623291,
        -0.99034816026687622,
        1
      ],
      "type": "VEC4"
    },
    {
      "bufferView": 1,
      "componentType": 5126,
      "count": 9316,
      "max": [
        0.99973469972610474,
        0.90954238176345825
      ],
      "min": [
        0.00026524061104282737,
        0.00026524061104282737
      ],
      "type": "VEC2"
    },
    {
      "bufferView": 0,
      "componentType": 5125,
      "count": 52608,
      "max": [
        9315
      ],
      "min": [
        0
      ],
      "type": "SCALAR"
    }
  ],
  "asset": {
    "extras": {
      "author": "SusanKing (https://sketchfab.com/krolzuzannapl)",
      "license": "CC-BY-4.0 (http://creativecommons.org/licenses/by/4.0/)",
      "source": "https://sketchfab.com/3d-models/cowboy-hat-d4bee845c7a443adbdc7dee04f63a423",
      "title": "Cowboy Hat"
    },
    "generator": "Sketchfab-8.89.2",
    "version": "2.0"
  },
  "bufferViews": [
    {
      "buffer": 0,
      "byteLength": 210432,
      "byteOffset": 0,
      "name": "floatBufferViews",
      "target": 34963
    },
    {
      "buffer": 0,
      "byteLength": 74528,
      "byteOffset": 210432,
      "byteStride": 8,
      "name": "floatBufferViews",
      "target": 34962
    },
    {
      "buffer": 0,
      "byteLength": 223584,
      "byteOffset": 284960,
      "byteStride": 12,
      "name": "floatBufferViews",
      "target": 34962
    },
    {
      "buffer": 0,
      "byteLength": 149056,
      "byteOffset": 508544,
      "byteStride": 16,
      "name": "floatBufferViews",
      "target": 34962
    }
  ],
  "buffers": [
    {
      "byteLength": 657600,
      "uri": "scene.bin"
    }
  ],
  "images": [
    {
      "uri": "textures/material_baseColor.jpeg"
    },
    {
      "uri": "textures/material_metallicRoughness.png"
    },
    {
      "uri": "textures/material_normal.png"
    }
  ],
  "materials": [
    {
      "doubleSided": true,
      "emissiveFactor": [
        0,
        0,
        0
      ],
      "name": "material",
      "normalTexture": {
        "index": 2,
        "scale": 1,
        "texCoord": 0
      },
      "occlusionTexture": {
        "index": 1,
        "strength": 1,
        "texCoord": 0
      },
      "pbrMetallicRoughness": {
        "baseColorFactor": [
          1,
          1,
          1,
          1
        ],
        "baseColorTexture": {
          "index": 0,
          "texCoord": 0
        },
        "metallicFactor": 1,
        "metallicRoughnessTexture": {
          "index": 1,
          "texCoord": 0
        },
        "roughnessFactor": 1
      }
    }
  ],
  "meshes": [
    {
      "name": "hat_hat_0",
      "primitives": [
        {
          "attributes": {
            "NORMAL": 1,
            "POSITION": 0,
            "TANGENT": 2,
            "TEXCOORD_0": 3
          },
          "indices": 4,
          "material": 0,
          "mode": 4
        }
      ]
    }
  ],
  "nodes": [
    {
      "children": [
        1
      ],
      "name": "RootNode (gltf orientation matrix)",
      "rotation": [
        -0.70710678118654746,
        -0,
        -0,
        0.70710678118654757
      ]
    },
    {
      "children": [
        2
      ],
      "name": "RootNode (model correction matrix)"
    },
    {
      "children": [
        3
      ],
      "matrix": [
        1,
        0,
        0,
        0,
        0,
        0,
        1,
        0,
        0,
        -1,
        0,
        0,
        0,
        0,
        0,
        1
      ],
      "name": "fd97895e6ced41b39b244ee3352527b4.fbx"
    },
    {
      "children": [
        4
      ],
      "name": "RootNode"
    },
    {
      "children": [
        5
      ],
      "matrix": [
        8.2579229019079872,
        -0.19171626859610522,
        -2.175723469428329e-08,
        0,
        -7.2771989113870925e-09,
        6.2396088592742799e-07,
        -8.2601490020751722,
        0,
        0.19171648994187435,
        8.257932436082088,
        6.2362454711565605e-07,
        0,
        0.14776420593261719,
        5.824589729309082,
        -2.2836316171392923e-10,
        1
      ],
      "name": "hat"
    },
    {
      "mesh": 0,
      "name": "hat_hat_0"
    }
  ],
  "samplers": [
    {
      "magFilter": 9729,
      "minFilter": 9987,
      "wrapS": 10497,
      "wrapT": 10497
    }
  ],
  "scene": 0,
  "scenes": [
    {
      "name": "OSG_Scene",
      "nodes": [
        0
      ]
    }
  ],
  "textures": [
    {
      "sampler": 0,
      "source": 0
    },
    {
      "sampler": 0,
      "source": 1
    },
    {
      "sampler": 0,
      "source": 2
    }
  ]
}

